<mxfile host="65bd71144e">
    <diagram id="eBFV7cMMqaSWebUuXyO-" name="PÃ¡gina-1">
        <mxGraphModel dx="575" dy="1647" grid="1" gridSize="10" guides="1" tooltips="1" connect="1" arrows="1" fold="1" page="1" pageScale="1" pageWidth="827" pageHeight="1169" math="0" shadow="0">
            <root>
                <mxCell id="0"/>
                <mxCell id="1" parent="0"/>
                <mxCell id="4" style="edgeStyle=none;html=1;entryX=0.538;entryY=-0.05;entryDx=0;entryDy=0;entryPerimeter=0;" parent="1" source="2" target="3" edge="1">
                    <mxGeometry relative="1" as="geometry"/>
                </mxCell>
                <mxCell id="2" value="Inicio" style="strokeWidth=2;html=1;shape=mxgraph.flowchart.terminator;whiteSpace=wrap;" parent="1" vertex="1">
                    <mxGeometry x="230" y="-70" width="100" height="40" as="geometry"/>
                </mxCell>
                <mxCell id="6" style="edgeStyle=none;html=1;entryX=0;entryY=0;entryDx=45;entryDy=0;entryPerimeter=0;" parent="1" source="3" target="5" edge="1">
                    <mxGeometry relative="1" as="geometry"/>
                </mxCell>
                <mxCell id="3" value="namebar=&quot;kevin.chiguano@epn.edu.ec&quot;;&lt;br&gt;tbar;&lt;br&gt;" style="shape=parallelogram;html=1;strokeWidth=2;perimeter=parallelogramPerimeter;whiteSpace=wrap;rounded=1;arcSize=12;size=0.23;" parent="1" vertex="1">
                    <mxGeometry x="110" width="316" height="60" as="geometry"/>
                </mxCell>
                <mxCell id="8" value="" style="edgeStyle=none;html=1;" parent="1" source="5" target="7" edge="1">
                    <mxGeometry relative="1" as="geometry"/>
                </mxCell>
                <mxCell id="5" value="int k=0;k&amp;lt;=tbar;k++" style="html=1;shadow=0;dashed=0;align=center;verticalAlign=middle;shape=mxgraph.arrows2.arrow;dy=0;dx=10;notch=0;" parent="1" vertex="1">
                    <mxGeometry x="220" y="90" width="110" height="30" as="geometry"/>
                </mxCell>
                <mxCell id="10" value="" style="edgeStyle=none;html=1;" edge="1" parent="1" source="7" target="9">
                    <mxGeometry relative="1" as="geometry"/>
                </mxCell>
                <mxCell id="7" value="&#10;&#10;&lt;div style=&quot;color: rgb(248, 248, 242); background-color: rgb(39, 40, 34); font-family: consolas, &amp;quot;courier new&amp;quot;, monospace; font-weight: normal; font-size: 14px; line-height: 19px;&quot;&gt;&lt;div&gt;&lt;span style=&quot;color: #f8f8f2&quot;&gt;sb&lt;/span&gt;&lt;span style=&quot;color: #f92672&quot;&gt;+=&lt;/span&gt;&lt;span style=&quot;color: #a6e22e ; text-decoration: underline&quot;&gt;String&lt;/span&gt;&lt;span style=&quot;color: #f8f8f2&quot;&gt;.&lt;/span&gt;&lt;span style=&quot;color: #a6e22e&quot;&gt;format&lt;/span&gt;&lt;span style=&quot;color: #f8f8f2&quot;&gt;(&lt;/span&gt;&lt;span style=&quot;color: #e6db74&quot;&gt;&quot;%s&quot;&lt;/span&gt;&lt;span style=&quot;color: #f8f8f2&quot;&gt;, ((&lt;/span&gt;&lt;span style=&quot;color: #f8f8f2&quot;&gt;nchar&lt;/span&gt;&lt;span style=&quot;color: #f92672&quot;&gt;&amp;lt;&lt;/span&gt;&lt;span style=&quot;color: #f8f8f2&quot;&gt;k&lt;/span&gt;&lt;span style=&quot;color: #f8f8f2&quot;&gt;) &lt;/span&gt;&lt;span style=&quot;color: #f92672&quot;&gt;?&lt;/span&gt;&lt;span style=&quot;color: #f8f8f2&quot;&gt; &lt;/span&gt;&lt;span style=&quot;color: #e6db74&quot;&gt;&quot;&quot;&lt;/span&gt;&lt;span style=&quot;color: #f8f8f2&quot;&gt; &lt;/span&gt;&lt;span style=&quot;color: #f92672&quot;&gt;:&lt;/span&gt;&lt;span style=&quot;color: #f8f8f2&quot;&gt; &lt;/span&gt;&lt;span style=&quot;color: #e6db74&quot;&gt;&quot;&quot;&lt;/span&gt;&lt;span style=&quot;color: #f8f8f2&quot;&gt; &lt;/span&gt;&lt;span style=&quot;color: #f92672&quot;&gt;+&lt;/span&gt;&lt;span style=&quot;color: #f8f8f2&quot;&gt;namebar&lt;/span&gt;&lt;span style=&quot;color: #f8f8f2&quot;&gt;.&lt;/span&gt;&lt;span style=&quot;color: #a6e22e&quot;&gt;charAt&lt;/span&gt;&lt;span style=&quot;color: #f8f8f2&quot;&gt;(&lt;/span&gt;&lt;span style=&quot;color: #f8f8f2&quot;&gt;k&lt;/span&gt;&lt;span style=&quot;color: #f8f8f2&quot;&gt;)));&lt;/span&gt;&lt;/div&gt;&lt;/div&gt;&#10;&#10;" style="rounded=1;whiteSpace=wrap;html=1;absoluteArcSize=1;arcSize=14;strokeWidth=2;" parent="1" vertex="1">
                    <mxGeometry x="148" y="150" width="266" height="60" as="geometry"/>
                </mxCell>
                <mxCell id="12" value="" style="edgeStyle=none;html=1;" edge="1" parent="1" source="9">
                    <mxGeometry relative="1" as="geometry">
                        <mxPoint x="280.4" y="290" as="targetPoint"/>
                        <Array as="points"/>
                    </mxGeometry>
                </mxCell>
                <mxCell id="13" value="" style="edgeStyle=none;html=1;" edge="1" parent="1" source="9" target="7">
                    <mxGeometry relative="1" as="geometry"/>
                </mxCell>
                <mxCell id="9" value="&quot; \n&quot;" style="whiteSpace=wrap;html=1;rounded=1;arcSize=14;strokeWidth=2;" vertex="1" parent="1">
                    <mxGeometry x="221" y="230" width="120" height="30" as="geometry"/>
                </mxCell>
                <mxCell id="14" value="" style="endArrow=classic;html=1;" edge="1" parent="1">
                    <mxGeometry width="50" height="50" relative="1" as="geometry">
                        <mxPoint x="280" y="270" as="sourcePoint"/>
                        <mxPoint x="480" y="260" as="targetPoint"/>
                    </mxGeometry>
                </mxCell>
                <mxCell id="15" value="" style="endArrow=classic;html=1;" edge="1" parent="1">
                    <mxGeometry width="50" height="50" relative="1" as="geometry">
                        <mxPoint x="470" y="250" as="sourcePoint"/>
                        <mxPoint x="470" y="80" as="targetPoint"/>
                    </mxGeometry>
                </mxCell>
                <mxCell id="16" value="" style="endArrow=classic;html=1;" edge="1" parent="1">
                    <mxGeometry width="50" height="50" relative="1" as="geometry">
                        <mxPoint x="470" y="80" as="sourcePoint"/>
                        <mxPoint x="270" y="70" as="targetPoint"/>
                    </mxGeometry>
                </mxCell>
                <mxCell id="17" value="&#10;&#10;&lt;div style=&quot;color: rgb(248, 248, 242); background-color: rgb(39, 40, 34); font-family: consolas, &amp;quot;courier new&amp;quot;, monospace; font-weight: normal; font-size: 14px; line-height: 19px;&quot;&gt;&lt;div&gt;&lt;span style=&quot;color: #f8f8f2&quot;&gt;&amp;nbsp;&lt;/span&gt;&lt;span style=&quot;color: #a6e22e ; text-decoration: underline&quot;&gt;System&lt;/span&gt;&lt;span style=&quot;color: #f8f8f2&quot;&gt;.&lt;/span&gt;&lt;span style=&quot;color: #f8f8f2&quot;&gt;out&lt;/span&gt;&lt;span style=&quot;color: #f8f8f2&quot;&gt;.&lt;/span&gt;&lt;span style=&quot;color: #a6e22e&quot;&gt;write&lt;/span&gt;&lt;span style=&quot;color: #f8f8f2&quot;&gt;(&lt;/span&gt;&lt;span style=&quot;color: #f8f8f2&quot;&gt;sb&lt;/span&gt;&lt;span style=&quot;color: #f8f8f2&quot;&gt;.&lt;/span&gt;&lt;span style=&quot;color: #a6e22e&quot;&gt;getBytes&lt;/span&gt;&lt;span style=&quot;color: #f8f8f2&quot;&gt;());&lt;/span&gt;&lt;/div&gt;&lt;/div&gt;&#10;&#10;" style="strokeWidth=2;html=1;shape=mxgraph.flowchart.document2;whiteSpace=wrap;size=0.25;" vertex="1" parent="1">
                    <mxGeometry x="90" y="290" width="320" height="100" as="geometry"/>
                </mxCell>
            </root>
        </mxGraphModel>
    </diagram>
</mxfile>